<svg width="120" height="120" viewBox="0 0 120 120" fill="none" xmlns="http://www.w3.org/2000/svg">
<g clip-path="url(#clip0_1746_216)">
<path d="M120 15V52.4414C118.906 51.3477 117.734 50.3711 116.484 49.5117C115.234 48.6523 113.906 47.832 112.5 47.0508V22.5H105V30H97.5V22.5H22.5V30H15V22.5H7.5V90H15V82.5H22.5V90H63.9258L56.4258 97.5H0V15H120ZM105 37.5V44.1211C103.75 43.8086 102.5 43.5742 101.25 43.418C100 43.2617 98.75 43.1641 97.5 43.125V37.5H105ZM22.5 60H15V52.5H22.5V60ZM22.5 45H15V37.5H22.5V45ZM15 67.5H22.5V75H15V67.5ZM97.5 52.5C100.586 52.5 103.496 53.0859 106.23 54.2578C108.965 55.4297 111.348 57.0312 113.379 59.0625C115.41 61.0938 117.031 63.4961 118.242 66.2695C119.453 69.043 120.039 71.9531 120 75C120 78.125 119.414 81.0352 118.242 83.7305C117.07 86.4258 115.469 88.8086 113.438 90.8789C111.406 92.9492 109.004 94.5703 106.23 95.7422C103.457 96.9141 100.547 97.5 97.5 97.5C95.1562 97.5 92.8906 97.1484 90.7031 96.4453C88.5156 95.7422 86.4453 94.6875 84.4922 93.2812L58.8867 118.887C58.1445 119.629 57.2656 120 56.25 120C55.2344 120 54.3555 119.629 53.6133 118.887C52.8711 118.145 52.5 117.266 52.5 116.25C52.5 115.234 52.8711 114.355 53.6133 113.613L79.2188 88.0078C77.8516 86.0938 76.8164 84.043 76.1133 81.8555C75.4102 79.668 75.0391 77.3828 75 75C75 71.9141 75.5859 69.0039 76.7578 66.2695C77.9297 63.5352 79.5312 61.1523 81.5625 59.1211C83.5938 57.0898 85.9766 55.4688 88.7109 54.2578C91.4453 53.0469 94.375 52.4609 97.5 52.5ZM97.5 90C99.5703 90 101.504 89.6094 103.301 88.8281C105.098 88.0469 106.699 86.9727 108.105 85.6055C109.512 84.2383 110.586 82.6562 111.328 80.8594C112.07 79.0625 112.461 77.1094 112.5 75C112.5 72.9297 112.109 70.9961 111.328 69.1992C110.547 67.4023 109.473 65.8008 108.105 64.3945C106.738 62.9883 105.156 61.9141 103.359 61.1719C101.562 60.4297 99.6094 60.0391 97.5 60C95.4297 60 93.4961 60.3906 91.6992 61.1719C89.9023 61.9531 88.3008 63.0273 86.8945 64.3945C85.4883 65.7617 84.4141 67.3438 83.6719 69.1406C82.9297 70.9375 82.5391 72.8906 82.5 75C82.5 77.0703 82.8906 79.0039 83.6719 80.8008C84.4531 82.5977 85.5273 84.1992 86.8945 85.6055C88.2617 87.0117 89.8438 88.0859 91.6406 88.8281C93.4375 89.5703 95.3906 89.9609 97.5 90Z" fill="#4A90E2"/>
</g>
<defs>
<clipPath id="clip0_1746_216">
<rect width="120" height="120" fill="white"/>
</clipPath>
</defs>
</svg>
