<svg width="200" height="200" viewBox="0 0 200 200" fill="none" xmlns="http://www.w3.org/2000/svg">
<g clip-path="url(#clip0_259_63)">
<rect width="200" height="200" fill="url(#paint0_linear_259_63)"/>
<path d="M80.8526 24.3831V10.968L126.032 0.0402832H65.3617V24.5047C67.9274 23.9046 70.6443 23.5851 73.3857 23.5851C75.9659 23.5851 78.4607 23.8579 80.8526 24.3831ZM80.8526 154.789C75.4473 154.234 70.2839 153.544 65.3617 152.724V181.308H30.8514V185.549H65.3617V185.592H80.8526V154.789ZM40.5928 118.861C40.5928 118.861 64.9641 114.437 80.8526 98.4174V31.595C72.5699 29.4398 63.9972 31.2345 59.0994 34.4676C42.5545 45.3918 44.3743 64.2226 44.3743 64.2226C44.3743 64.2226 32.3712 52.1088 15.8315 63.0267C-0.679166 73.9233 -28.6417 136.24 80.8526 147.694V112.794C74.7304 124.831 62.9349 134.404 40.5928 118.861ZM67.771 73.6915C70.8839 73.6915 73.4077 76.7598 73.4077 80.5443C73.4077 84.3287 70.8839 87.397 67.771 87.397C64.6582 87.397 62.1344 84.3287 62.1344 80.5443C62.1344 76.7591 64.6582 73.6915 67.771 73.6915ZM36.3213 95.5257C36.3213 91.7413 38.8451 88.6729 41.958 88.6729C45.0708 88.6729 47.5947 91.7413 47.5947 95.5257C47.5947 99.3101 45.0708 102.378 41.958 102.378C38.8451 102.378 36.3213 99.3101 36.3213 95.5257Z" fill="#4A90E2"/>
<path d="M124.822 184.067V116.423L122.233 95.5335C118.785 102.354 112.922 109.935 102.226 114.567C101.41 114.921 100.556 115.102 99.6901 115.102C97.6692 115.102 95.7813 114.113 94.3959 112.46L90.0103 114.237V78.2534L94.6842 76.3591V99.0344C95.3877 98.276 96.2156 97.6611 97.154 97.2546C107.909 92.5958 110.407 84.3541 112.822 76.3838C114.266 71.6155 116.143 65.4271 120.465 61.9933C118.996 59.542 117.979 56.6588 117.589 53.5147C116.953 48.3803 117.998 43.2522 120.535 39.0747C123.071 34.8973 126.793 32.1703 131.016 31.3971C131.81 31.2514 132.618 31.1772 133.416 31.1772C137.379 31.1772 141.073 32.9995 143.909 36.0191V0.0402832L84.3411 14.4485V200L126.042 189.913C125.264 188.174 124.822 186.182 124.822 184.067Z" fill="white"/>
<path d="M182.289 93.4172C174.282 92.6998 169.655 83.8304 165.182 75.2522C161.064 67.3568 156.806 59.1928 149.561 58.8663C149.053 58.8436 148.564 58.9221 148.103 59.0804C148.041 59.0889 147.979 59.0917 147.916 59.103L145.837 59.484C145.581 60.012 145.303 60.528 144.999 61.0278C142.712 64.7952 139.355 67.2543 135.547 67.952C134.83 68.0834 134.102 68.1499 133.382 68.1499C129.818 68.1499 126.496 66.5142 123.941 63.8042C119.08 66.0025 117.21 72.1251 115.549 77.606C113.026 85.9325 110.165 95.3709 98.1285 100.585C95.7087 101.632 94.4459 104.867 95.3075 107.809C95.986 110.123 97.7773 111.567 99.6889 111.567C100.208 111.567 100.734 111.462 101.25 111.238C116.261 104.737 120.896 92.4489 123.678 83.4798L127.729 116.158V184.068C127.729 188.896 130.948 192.807 134.917 192.807C138.886 192.807 142.106 188.896 142.106 184.068V120.106L144.801 119.613V184.069C144.801 188.896 148.02 192.807 151.988 192.807C155.959 192.807 159.178 188.896 159.178 184.069V113.131C159.178 112.185 159.051 111.277 158.822 110.424L154.58 76.2064C155.509 77.8293 156.437 79.6049 157.326 81.3084C162.496 91.2218 168.931 103.56 181.605 104.696C181.721 104.707 181.836 104.711 181.952 104.711C184.365 104.711 186.405 102.445 186.586 99.472C186.774 96.3577 184.85 93.647 182.289 93.4172Z" fill="white"/>
<path d="M146.334 48.2474C145.257 39.5618 138.593 33.5819 131.449 34.891C124.305 36.2 119.386 44.3018 120.462 52.9874C121.539 61.6731 128.204 67.6522 135.347 66.3439C142.492 65.0348 147.41 56.933 146.334 48.2474ZM126.293 59.3342C126.293 59.3342 134.487 59.8289 139.031 55.1426C139.031 55.1426 135.375 68.9712 126.293 59.3342ZM164.372 8.72522L163.296 8.67008L163.601 6.60611H164.564C166.647 6.60611 167.96 5.38187 167.96 3.1935C167.96 1.50062 167.043 0.661601 165.402 0.661601H162.482L162.323 1.74801L162.912 1.80315L161.972 8.31242C161.927 8.62838 161.859 8.68351 161.644 8.72522L161.282 8.78035L161.135 9.81304H164.214L164.372 8.72522ZM164.281 1.88585H164.972C165.877 1.88585 166.511 2.0774 166.511 3.20693C166.511 4.80297 165.696 5.38116 164.53 5.38116H163.771L164.281 1.88585ZM169.42 9.97703C169.691 9.97703 170.099 9.92189 170.359 9.82647L170.507 8.79378C170.45 8.80792 170.382 8.80792 170.325 8.80792H170.065C169.872 8.80792 169.815 8.76621 169.85 8.50539L171.084 0H169.16L169.001 1.03269L169.318 1.08782C169.533 1.12811 169.59 1.15568 169.545 1.47305L168.504 8.47782C168.367 9.41368 168.56 9.97703 169.42 9.97703ZM173.654 10.0046C174.74 10.0046 175.544 9.48153 175.759 9.30341L175.476 8.16045C175.171 8.39512 174.672 8.72522 173.96 8.72522C172.998 8.72522 172.783 7.9272 172.839 7.04647C175.046 7.15674 176.484 6.50928 176.484 4.45944C176.484 3.2352 175.873 2.698 174.876 2.698C172.737 2.698 171.492 4.78954 171.492 7.32143C171.492 8.86305 172.126 10.0046 173.654 10.0046ZM174.639 3.89468C175.035 3.89468 175.272 4.10178 175.272 4.61142C175.272 5.65683 174.333 5.91907 172.986 5.87736C173.133 4.87224 173.767 3.89468 174.639 3.89468ZM178.849 10.0046C179.619 10.0046 180.207 9.57766 180.513 8.98745H180.547C180.49 9.52324 180.706 9.97703 181.374 9.97703C181.611 9.97703 181.996 9.92189 182.211 9.82647L182.358 8.80792C182.29 8.82205 182.234 8.82205 182.177 8.82205C182.086 8.83619 181.973 8.83619 181.939 8.83619C181.724 8.83619 181.69 8.76692 181.724 8.5478L182.483 3.1942C181.724 2.80898 181 2.69871 180.513 2.69871C178.125 2.69871 177.004 4.74854 177.004 7.52925C177.004 8.95989 177.525 10.0046 178.849 10.0046ZM180.275 3.90811C180.581 3.90811 180.807 3.97738 181.022 4.08765L180.581 7.19774C180.411 8.31172 179.845 8.80721 179.245 8.80721C178.543 8.80721 178.396 8.14702 178.396 7.43099C178.396 5.84909 178.838 3.90811 180.275 3.90811ZM186.693 4.89981L187.713 4.78954L187.962 3.16593C187.52 2.84997 186.796 2.698 186.161 2.698C184.588 2.698 183.694 3.50945 183.694 4.94151C183.694 6.30429 184.498 6.66195 185.188 6.95034C185.675 7.17158 186.117 7.28044 186.117 7.85863C186.117 8.57537 185.641 8.84962 185.064 8.84962C184.758 8.84962 184.509 8.79449 184.384 8.72522C184.249 8.65595 184.214 8.5888 184.249 8.38169L184.339 7.68051L183.297 7.78936L183.049 9.52324C183.433 9.77204 184.282 10.0053 185.018 10.0053C186.637 10.0053 187.498 9.08288 187.498 7.59781C187.498 6.33186 186.773 6.04206 185.981 5.67026C185.471 5.45043 185.019 5.2716 185.019 4.72027C185.019 4.07422 185.506 3.82541 186.049 3.82541C186.286 3.82541 186.524 3.86711 186.66 3.92225C186.796 3.99152 186.818 4.06008 186.785 4.29334L186.693 4.89981ZM193.406 4.45944C193.406 3.2352 192.795 2.698 191.799 2.698C189.659 2.698 188.414 4.78954 188.414 7.32143C188.414 8.86376 189.049 10.0053 190.577 10.0053C191.663 10.0053 192.467 9.48224 192.682 9.30412L192.399 8.16116C192.094 8.39583 191.595 8.72592 190.882 8.72592C189.921 8.72592 189.706 7.9279 189.762 7.04718C191.969 7.15674 193.406 6.50928 193.406 4.45944ZM191.562 3.89468C191.957 3.89468 192.195 4.10178 192.195 4.61142C192.195 5.65683 191.256 5.91907 189.909 5.87736C190.056 4.87224 190.689 3.89468 191.562 3.89468ZM162.555 17.0122H161.23C161.276 17.4398 161.298 18.1417 161.298 18.7475C161.298 21.003 160.755 22.8203 159.668 22.8203C158.909 22.8203 159.023 22.0498 159.113 21.3345L159.748 17.0122H158.412L157.755 21.5543C157.63 22.3382 157.189 22.8203 156.555 22.8203C155.797 22.8203 155.888 22.1191 155.979 21.3621L156.408 18.3884C156.544 17.4935 156.363 16.9026 155.514 16.9026C155.242 16.9026 154.869 16.9578 154.631 17.0532L154.484 18.0717H154.631C154.71 18.0717 154.812 18.0576 154.858 18.0576C155.039 18.0576 155.106 18.1127 155.072 18.346L154.608 21.6222C154.393 23.1369 154.869 24.1407 156.193 24.1407C156.906 24.1407 157.608 23.8523 158.141 22.985C158.265 23.6862 158.684 24.1407 159.579 24.1407C161.695 24.1407 162.635 21.8972 162.635 18.6916C162.634 18.1276 162.589 17.4405 162.555 17.0122ZM168.543 18.5962C168.543 17.372 167.932 16.8348 166.935 16.8348C164.796 16.8348 163.551 18.9263 163.551 21.4582C163.551 23.0005 164.185 24.1421 165.713 24.1421C166.8 24.1421 167.604 23.619 167.818 23.4409L167.536 22.2979C167.23 22.5326 166.732 22.8627 166.019 22.8627C165.057 22.8627 164.842 22.0647 164.898 21.184C167.105 21.2935 168.543 20.646 168.543 18.5962ZM166.698 18.0315C167.094 18.0315 167.332 18.2386 167.332 18.7482C167.332 19.7936 166.392 20.0558 165.045 20.0141C165.192 19.009 165.826 18.0315 166.698 18.0315ZM171.848 14.1368H169.923L169.765 15.1695L170.082 15.2246C170.297 15.2649 170.354 15.2925 170.309 15.6098L169.268 22.6146C169.132 23.5504 169.324 24.1138 170.185 24.1138C170.456 24.1138 170.864 24.0587 171.124 23.9632L171.271 22.9306C171.214 22.9447 171.146 22.9447 171.09 22.9447H170.829C170.637 22.9447 170.58 22.903 170.614 22.6422L171.848 14.1368ZM175.889 19.325L176.953 19.2423L177.214 17.372C176.817 17.027 176.229 16.8348 175.55 16.8348C173.942 16.8348 172.255 17.9905 172.255 21.4045C172.255 23.1249 173.014 24.1421 174.451 24.1421C175.311 24.1421 176.047 23.7844 176.534 23.3582L176.16 22.2166C175.651 22.6153 175.187 22.8076 174.768 22.8076C173.964 22.8076 173.658 22.1339 173.658 21.2115C173.658 19.1893 174.372 18.129 175.414 18.129C175.561 18.129 175.731 18.1431 175.855 18.1983C176.002 18.2675 176.025 18.3623 175.99 18.5969L175.889 19.325ZM179.659 24.1414C181.923 24.1414 182.817 21.8441 182.817 19.366C182.817 17.2052 181.527 16.8341 180.746 16.8341C178.515 16.8341 177.576 19.05 177.576 21.5402C177.576 23.2606 178.311 24.1414 179.659 24.1414ZM180.564 18.0449C181.198 18.0449 181.447 18.5679 181.447 19.4487C181.447 20.6453 181.142 22.903 179.829 22.903C179.138 22.903 178.945 22.3248 178.945 21.5126C178.945 20.2608 179.228 18.0449 180.564 18.0449ZM190.265 22.6973C190.141 23.5646 190.333 24.1138 191.193 24.1138C191.466 24.1138 191.85 24.0587 192.077 23.9632L192.224 22.9447C192.156 22.9588 192.099 22.9588 192.043 22.9588H191.828C191.601 22.9588 191.578 22.8486 191.613 22.6704L192.11 19.2147C192.337 17.6604 191.862 16.8348 190.718 16.8348C189.903 16.8348 189.303 17.2617 188.895 18.018C188.748 17.2476 188.295 16.8348 187.571 16.8348C186.892 16.8348 186.213 17.1783 185.805 17.9488H185.793L185.906 17.0129H184.073L183.925 18.059L184.277 18.0866C184.491 18.1283 184.548 18.1834 184.503 18.4994L183.711 23.9498H185.035L185.646 19.8205C185.782 18.8846 186.178 18.1693 186.869 18.1693C187.582 18.1693 187.661 18.7475 187.537 19.5731L186.903 23.9491H188.227L188.861 19.6954C188.986 18.8146 189.382 18.1686 190.095 18.1686C190.763 18.1686 190.853 18.7468 190.729 19.5589L190.265 22.6973ZM198.267 18.5962C198.267 17.372 197.656 16.8348 196.66 16.8348C194.52 16.8348 193.275 18.9263 193.275 21.4582C193.275 23.0005 193.91 24.1421 195.438 24.1421C196.524 24.1421 197.328 23.619 197.543 23.4409L197.26 22.2979C196.955 22.5326 196.456 22.8627 195.744 22.8627C194.782 22.8627 194.567 22.0647 194.623 21.184C196.83 21.2935 198.267 20.646 198.267 18.5962ZM196.423 18.0315C196.819 18.0315 197.057 18.2386 197.057 18.7482C197.057 19.7936 196.117 20.0558 194.77 20.0141C194.917 19.009 195.551 18.0315 196.423 18.0315ZM198.347 23.3433C198.347 23.8254 198.584 24.1272 199.049 24.1272C199.626 24.1272 200 23.6056 200 22.9857C200 22.5312 199.751 22.2294 199.298 22.2294C198.743 22.2294 198.347 22.6973 198.347 23.3433ZM151.957 44.8425L152.437 46.1304C152.827 45.9155 161.987 40.7577 161.887 30.6931L160.725 30.7093C160.815 39.8452 152.046 44.7945 151.957 44.8425Z" fill="white"/>
</g>
<defs>
<linearGradient id="paint0_linear_259_63" x1="100" y1="0" x2="100" y2="200" gradientUnits="userSpaceOnUse">
<stop stop-color="#1C1F3B"/>
</linearGradient>
<clipPath id="clip0_259_63">
<rect width="200" height="200" fill="white"/>
</clipPath>
</defs>
</svg>
