<svg width="250" height="250" viewBox="0 0 250 250" fill="none" xmlns="http://www.w3.org/2000/svg">
<path d="M7.72061 13.6029C7.35297 14.3382 7.35297 14.7058 7.35297 15.4411V146.691L85.2941 68.75L7.72061 13.6029ZM221.691 15.4411V104.412C210.662 94.8529 196.324 89.3382 181.25 89.3382C176.103 89.3382 170.956 90.0735 166.176 91.1764L143.75 68.75L221.691 13.6029V15.4411ZM155.882 94.8529C153.309 95.9558 150.735 97.4264 148.162 98.897C134.191 107.721 124.265 121.691 120.588 137.868C118.75 145.221 118.75 152.573 119.485 159.559H15.4412C13.603 159.559 11.7647 158.823 10.2941 157.721L93.3824 74.6323L111.765 87.5C112.5 88.2353 113.603 88.2353 114.706 88.2353C115.809 88.2353 116.544 87.8676 117.647 87.5L136.029 74.6323L155.882 94.8529Z" fill="#4A90E2"/>
<path d="M96.3236 64.3382C96.3236 64.7058 96.3236 64.7058 96.3236 64.3382L114.706 77.2058L132.721 64.3382H133.088L134.191 63.6029L213.235 7.35291H15.8088L95.2206 63.9706L96.3236 64.3382ZM196.324 204.412C198.529 208.088 203.309 209.191 206.985 206.985H207.353L223.529 238.603C229.412 249.265 248.162 237.5 241.176 227.574L219.853 199.265H220.221C223.897 197.059 225 192.279 222.794 188.603C238.603 170.956 241.544 144.118 228.309 122.794C212.132 97.0588 178.309 89.3382 152.574 105.515C126.838 121.691 119.118 155.515 135.294 181.25C148.162 202.206 173.529 211.029 196.324 204.412ZM142.279 176.103C128.676 154.779 135.294 126.471 156.618 112.868C177.941 99.2647 206.25 105.882 219.853 127.206C233.456 148.529 226.838 176.838 205.515 190.441C184.191 204.044 155.882 197.426 142.279 176.103Z" fill="#4A90E2"/>
<path d="M179.779 183.088L172.794 159.191L148.897 152.206L203.676 128.309L179.779 183.088Z" fill="white"/>
</svg>
