<svg width="120" height="120" viewBox="0 0 120 120" fill="none" xmlns="http://www.w3.org/2000/svg">
<path d="M25 105C22.25 105 19.8967 104.022 17.94 102.065C15.9833 100.108 15.0033 97.7533 15 95V25C15 22.25 15.98 19.8967 17.94 17.94C19.9 15.9833 22.2533 15.0033 25 15H53C51.3333 17.6667 50.0833 20.4584 49.25 23.375C48.4167 26.2917 48 29.3333 48 32.5C48 41.5833 51.1467 49.2717 57.44 55.565C63.7333 61.8583 71.3367 65.0033 80.25 65C82 65 83.6883 64.875 85.315 64.625C86.9417 64.375 88.545 64 90.125 63.5L105 78.375V95C105 97.75 104.022 100.105 102.065 102.065C100.108 104.025 97.7533 105.003 95 105H25ZM107.75 67L92.25 51.5C90.5 52.6667 88.625 53.5417 86.625 54.125C84.625 54.7083 82.5 55 80.25 55C74.0833 55 68.8333 52.8133 64.5 48.44C60.1667 44.0667 58 38.7533 58 32.5C58 26.2467 60.1883 20.935 64.565 16.565C68.9417 12.195 74.2533 10.0067 80.5 10C86.7467 9.99335 92.06 12.1817 96.44 16.565C100.82 20.9483 103.007 26.26 103 32.5C103 34.75 102.667 36.9167 102 39C101.333 41.0833 100.5 43 99.5 44.75L114.75 60L107.75 67ZM80.5 45C84 45 86.9583 43.7917 89.375 41.375C91.7917 38.9583 93 36 93 32.5C93 29 91.7917 26.0417 89.375 23.625C86.9583 21.2083 84 20 80.5 20C77 20 74.0417 21.2083 71.625 23.625C69.2083 26.0417 68 29 68 32.5C68 36 69.2083 38.9583 71.625 41.375C74.0417 43.7917 77 45 80.5 45ZM30 85H90L74.625 64.5C73.7083 64.3333 72.7717 64.125 71.815 63.875C70.8583 63.625 69.92 63.3334 69 63L56.25 80L45 65L30 85Z" fill="#4A90E2"/>
</svg>
