<svg width="200" height="200" viewBox="0 0 200 200" fill="none" xmlns="http://www.w3.org/2000/svg">
<g clip-path="url(#clip0_259_95)">
<path d="M197.062 110.828C199.012 98.7426 200 86.6859 200 75.0001C200 62.8259 198.978 50.7159 196.968 39.0384C193.949 21.0367 179.757 7.12923 161.601 4.41923C120.74 -1.44828 79.4433 -1.48078 38.1508 4.50089C20.15 7.08423 6.00167 20.9959 2.9375 39.1726C0.988333 51.2576 0 63.3142 0 75.0001C0 87.1742 1.02167 99.2842 3.03167 110.962C6.05083 128.963 20.2433 142.871 38.3992 145.581C58.8417 148.515 79.565 150 100 150C100 177.572 122.428 200 150 200C177.572 200 200 177.572 200 150C200 140.423 197.247 131.499 192.559 123.888C194.802 119.717 196.365 115.288 197.062 110.828ZM40.5275 20.9959C80.2775 15.2426 119.999 15.2867 159.188 20.9101C161.399 21.2401 163.477 21.9109 165.458 22.7576L117.692 70.5234C108.261 79.9476 91.74 79.9476 82.3083 70.5234L34.515 22.7309C36.4208 21.9351 38.4125 21.2992 40.5275 20.9959ZM102.926 133.309C102.024 133.312 101.145 133.333 100.24 133.333C80.5742 133.215 60.5058 131.918 40.8125 129.089C29.8667 127.458 21.2892 119.063 19.4625 108.17C17.6067 97.3876 16.6675 86.2301 16.6675 74.9992C16.6675 64.2001 17.5833 53.0384 19.3817 41.8859C19.8642 39.0251 20.8225 36.3534 22.1358 33.9184L70.525 82.3076C78.6508 90.4334 89.3275 94.4984 100.001 94.4984C110.674 94.4984 121.351 90.4334 129.477 82.3076L177.823 33.9609C179.124 36.3709 180.066 39.0109 180.538 41.8292C182.394 52.6117 183.333 63.7692 183.333 75.0001C183.333 85.7992 182.417 96.9609 180.603 108.212C180.502 108.854 180.206 109.487 180.046 110.128C171.67 103.801 161.283 100 150 100C128.287 100 109.817 113.934 102.926 133.309ZM150 183.333C131.62 183.333 116.667 168.38 116.667 150C116.667 131.62 131.62 116.667 150 116.667C168.38 116.667 183.333 131.62 183.333 150C183.333 168.38 168.38 183.333 150 183.333Z" fill="#4A90E2"/>
<path d="M150 179.167C154.602 179.167 158.333 175.436 158.333 170.833C158.333 166.231 154.602 162.5 150 162.5C145.398 162.5 141.667 166.231 141.667 170.833C141.667 175.436 145.398 179.167 150 179.167Z" fill="white"/>
<path d="M150 158.333C154.602 158.333 158.333 154.602 158.333 150C158.333 145.398 154.602 141.667 150 141.667C145.398 141.667 141.667 145.398 141.667 150C141.667 154.602 145.398 158.333 150 158.333Z" fill="white"/>
<path d="M150 137.5C154.602 137.5 158.333 133.769 158.333 129.167C158.333 124.564 154.602 120.833 150 120.833C145.398 120.833 141.667 124.564 141.667 129.167C141.667 133.769 145.398 137.5 150 137.5Z" fill="white"/>
</g>
<defs>
<clipPath id="clip0_259_95">
<rect width="200" height="200" fill="white"/>
</clipPath>
</defs>
</svg>
