<svg width="140" height="140" viewBox="0 0 140 140" fill="none" xmlns="http://www.w3.org/2000/svg">
<g clip-path="url(#clip0_211_74)">
<path d="M130.87 44.0741H127.826V7.77778C127.826 7.09018 127.505 6.43074 126.935 5.94454C126.364 5.45833 125.59 5.18518 124.783 5.18518C123.975 5.18518 123.201 4.91204 122.631 4.42583C122.06 3.93963 121.739 3.28019 121.739 2.59259C121.739 1.90499 121.418 1.24556 120.848 0.759353C120.277 0.273148 119.503 0 118.696 0H21.3043C20.4972 0 19.723 0.273148 19.1523 0.759353C18.5815 1.24556 18.2609 1.90499 18.2609 2.59259C18.2609 3.28019 17.9402 3.93963 17.3695 4.42583C16.7987 4.91204 16.0246 5.18518 15.2174 5.18518C14.4102 5.18518 13.6361 5.45833 13.0653 5.94454C12.4946 6.43074 12.1739 7.09018 12.1739 7.77778V44.0741H9.13043C6.70889 44.0741 4.38653 44.8935 2.67424 46.3521C0.961953 47.8107 0 49.7891 0 51.8518V88.1481C0 90.2109 0.961953 92.1892 2.67424 93.6479C4.38653 95.1065 6.70889 95.9259 9.13043 95.9259H12.1739V132.222C12.1739 132.91 12.4946 133.569 13.0653 134.055C13.6361 134.542 14.4102 134.815 15.2174 134.815C16.0246 134.815 16.7987 135.088 17.3695 135.574C17.9402 136.06 18.2609 136.72 18.2609 137.407C18.2609 138.095 18.5815 138.754 19.1523 139.241C19.723 139.727 20.4972 140 21.3043 140H118.696C119.503 140 120.277 139.727 120.848 139.241C121.418 138.754 121.739 138.095 121.739 137.407C121.739 136.72 122.06 136.06 122.631 135.574C123.201 135.088 123.975 134.815 124.783 134.815C125.59 134.815 126.364 134.542 126.935 134.055C127.505 133.569 127.826 132.91 127.826 132.222V95.9259H130.87C133.291 95.9259 135.613 95.1065 137.326 93.6479C139.038 92.1892 140 90.2109 140 88.1481V51.8518C140 49.7891 139.038 47.8107 137.326 46.3521C135.613 44.8935 133.291 44.0741 130.87 44.0741ZM18.2609 9.9037C19.5438 9.52654 20.7091 8.90572 21.6688 8.08824C22.6285 7.27076 23.3572 6.27803 23.8 5.18518H116.2C116.643 6.27803 117.372 7.27076 118.331 8.08824C119.291 8.90572 120.456 9.52654 121.739 9.9037V44.0741H18.2609V9.9037ZM121.739 130.096C120.456 130.473 119.291 131.094 118.331 131.912C117.372 132.729 116.643 133.722 116.2 134.815H23.8C23.3572 133.722 22.6285 132.729 21.6688 131.912C20.7091 131.094 19.5438 130.473 18.2609 130.096V95.9259H121.739V130.096ZM133.913 88.1481C133.913 88.8357 133.592 89.4952 133.022 89.9814C132.451 90.4676 131.677 90.7407 130.87 90.7407H9.13043C8.32325 90.7407 7.54913 90.4676 6.97837 89.9814C6.40761 89.4952 6.08696 88.8357 6.08696 88.1481V51.8518C6.08696 51.1643 6.40761 50.5048 6.97837 50.0186C7.54913 49.5324 8.32325 49.2593 9.13043 49.2593H130.87C131.677 49.2593 132.451 49.5324 133.022 50.0186C133.592 50.5048 133.913 51.1643 133.913 51.8518V88.1481ZM115.652 18.1481C115.652 18.8357 115.332 19.4952 114.761 19.9814C114.19 20.4676 113.416 20.7407 112.609 20.7407H27.3913C26.5841 20.7407 25.81 20.4676 25.2392 19.9814C24.6685 19.4952 24.3478 18.8357 24.3478 18.1481C24.3478 17.4605 24.6685 16.8011 25.2392 16.3149C25.81 15.8287 26.5841 15.5556 27.3913 15.5556H112.609C113.416 15.5556 114.19 15.8287 114.761 16.3149C115.332 16.8011 115.652 17.4605 115.652 18.1481ZM109.565 28.5185C109.565 29.2061 109.245 29.8656 108.674 30.3518C108.103 30.838 107.329 31.1111 106.522 31.1111H33.4783C32.6711 31.1111 31.897 30.838 31.3262 30.3518C30.7554 29.8656 30.4348 29.2061 30.4348 28.5185C30.4348 27.8309 30.7554 27.1715 31.3262 26.6853C31.897 26.1991 32.6711 25.9259 33.4783 25.9259H106.522C107.329 25.9259 108.103 26.1991 108.674 26.6853C109.245 27.1715 109.565 27.8309 109.565 28.5185ZM24.3478 111.481C24.3478 110.794 24.6685 110.134 25.2392 109.648C25.81 109.162 26.5841 108.889 27.3913 108.889H112.609C113.416 108.889 114.19 109.162 114.761 109.648C115.332 110.134 115.652 110.794 115.652 111.481C115.652 112.169 115.332 112.829 114.761 113.315C114.19 113.801 113.416 114.074 112.609 114.074H27.3913C26.5841 114.074 25.81 113.801 25.2392 113.315C24.6685 112.829 24.3478 112.169 24.3478 111.481ZM103.478 121.852C103.478 122.539 103.158 123.199 102.587 123.685C102.016 124.171 101.242 124.444 100.435 124.444H39.5652C38.758 124.444 37.9839 124.171 37.4132 123.685C36.8424 123.199 36.5217 122.539 36.5217 121.852C36.5217 121.164 36.8424 120.505 37.4132 120.019C37.9839 119.532 38.758 119.259 39.5652 119.259H100.435C101.242 119.259 102.016 119.532 102.587 120.019C103.158 120.505 103.478 121.164 103.478 121.852ZM39.5652 54.4444H33.4783C31.0567 54.4444 28.7344 55.2639 27.0221 56.7225C25.3098 58.1811 24.3478 60.1594 24.3478 62.2222V77.7778C24.3478 79.8406 25.3098 81.8189 27.0221 83.2775C28.7344 84.7361 31.0567 85.5556 33.4783 85.5556H39.5652C41.9868 85.5556 44.3091 84.7361 46.0214 83.2775C47.7337 81.8189 48.6957 79.8406 48.6957 77.7778V62.2222C48.6957 60.1594 47.7337 58.1811 46.0214 56.7225C44.3091 55.2639 41.9868 54.4444 39.5652 54.4444ZM42.6087 77.7778C42.6087 78.4654 42.288 79.1248 41.7173 79.611C41.1465 80.0972 40.3724 80.3704 39.5652 80.3704H33.4783C32.6711 80.3704 31.897 80.0972 31.3262 79.611C30.7554 79.1248 30.4348 78.4654 30.4348 77.7778V62.2222C30.4348 61.5346 30.7554 60.8752 31.3262 60.389C31.897 59.9028 32.6711 59.6296 33.4783 59.6296H39.5652C40.3724 59.6296 41.1465 59.9028 41.7173 60.389C42.288 60.8752 42.6087 61.5346 42.6087 62.2222V77.7778ZM85.2174 57.037C85.2174 57.7246 84.8967 58.3841 84.326 58.8703C83.7552 59.3565 82.9811 59.6296 82.1739 59.6296H73.0435V82.963C73.0435 83.6506 72.7228 84.31 72.1521 84.7962C71.5813 85.2824 70.8072 85.5556 70 85.5556C69.1928 85.5556 68.4187 85.2824 67.8479 84.7962C67.2772 84.31 66.9565 83.6506 66.9565 82.963V59.6296H57.8261C57.0189 59.6296 56.2448 59.3565 55.674 58.8703C55.1033 58.3841 54.7826 57.7246 54.7826 57.037C54.7826 56.3494 55.1033 55.69 55.674 55.2038C56.2448 54.7176 57.0189 54.4444 57.8261 54.4444H82.1739C82.9811 54.4444 83.7552 54.7176 84.326 55.2038C84.8967 55.69 85.2174 56.3494 85.2174 57.037ZM103.478 54.4444H94.3478C93.5406 54.4444 92.7665 54.7176 92.1958 55.2038C91.625 55.69 91.3044 56.3494 91.3044 57.037V82.963C91.3044 83.6506 91.625 84.31 92.1958 84.7962C92.7665 85.2824 93.5406 85.5556 94.3478 85.5556C95.155 85.5556 95.9291 85.2824 96.4999 84.7962C97.0707 84.31 97.3913 83.6506 97.3913 82.963V75.1852H103.478C106.707 75.1852 109.803 74.0926 112.087 72.1478C114.37 70.2029 115.652 67.5652 115.652 64.8148C115.652 62.0644 114.37 59.4267 112.087 57.4819C109.803 55.537 106.707 54.4444 103.478 54.4444ZM103.478 70H97.3913V59.6296H103.478C105.093 59.6296 106.641 60.1759 107.782 61.1483C108.924 62.1207 109.565 63.4396 109.565 64.8148C109.565 66.19 108.924 67.5089 107.782 68.4813C106.641 69.4537 105.093 70 103.478 70Z" fill="#4A90E2"/>
</g>
<defs>
<clipPath id="clip0_211_74">
<rect width="140" height="140" fill="white"/>
</clipPath>
</defs>
</svg>
