<svg width="140" height="140" viewBox="0 0 140 140" fill="none" xmlns="http://www.w3.org/2000/svg">
<path d="M100.817 61.0479H88.8338C88.6748 61.048 88.5174 61.0167 88.3705 60.9559C88.2236 60.8951 88.0902 60.8059 87.9778 60.6935C87.8653 60.5811 87.7762 60.4476 87.7154 60.3007C87.6545 60.1538 87.6232 59.9964 87.6233 59.8374V35.0109C87.6233 25.2941 79.7174 17.3882 70 17.3882C60.2825 17.3882 52.3766 25.2941 52.3766 35.0109V59.8374C52.3767 59.9964 52.3454 60.1538 52.2846 60.3007C52.2238 60.4476 52.1346 60.5811 52.0222 60.6935C51.9098 60.8059 51.7763 60.8951 51.6294 60.9559C51.4825 61.0167 51.3251 61.048 51.1661 61.0479H39.1833C39.0243 61.048 38.8669 61.0167 38.72 60.9559C38.5731 60.8951 38.4397 60.8059 38.3273 60.6935C38.2148 60.5811 38.1257 60.4476 38.0649 60.3007C38.004 60.1538 37.9727 59.9964 37.9728 59.8374V35.0109C37.9728 17.3504 52.34 2.98322 70 2.98322C87.6599 2.98322 102.028 17.3504 102.028 35.0109V59.8374C102.028 59.9964 101.996 60.1538 101.936 60.3007C101.875 60.4476 101.786 60.5811 101.673 60.6935C101.561 60.8059 101.427 60.8951 101.28 60.9559C101.134 61.0167 100.976 61.048 100.817 61.0479Z" fill="white"/>
<path d="M119.034 82.265C119.034 109.063 97.3101 130.787 70.5121 130.787H69.4881C42.6904 130.787 20.9663 109.063 20.9663 82.265C20.9663 68.0225 32.5122 56.4766 46.7547 56.4766H93.2454C107.488 56.4769 119.034 68.0228 119.034 82.265Z" fill="#429DDA"/>
<path d="M62.0719 95.6832L64.7462 85.5195C63.9091 84.7785 63.2392 83.868 62.7811 82.8482C62.3229 81.8285 62.087 80.723 62.0889 79.605C62.0889 75.1354 65.7975 71.5198 70.3142 71.697C74.1828 71.8487 77.4506 74.8847 77.8638 78.7341C78.1531 81.4286 77.0809 83.8934 75.2535 85.5127L77.9283 95.684C78.6234 98.3273 76.6298 100.913 73.8967 100.913H66.1035C63.3702 100.913 61.3766 98.3265 62.0719 95.6832ZM127.793 122.575C127.793 130.551 121.327 137.016 113.352 137.016H26.6487C18.6733 137.016 12.2079 130.551 12.2079 122.575C12.2079 114.6 18.6733 108.135 26.6487 108.135H113.352C121.327 108.135 127.793 114.6 127.793 122.575Z" fill="white"/>
<path d="M66.1037 102.253H73.897C77.5064 102.253 80.1448 98.8389 79.2249 95.3433L76.7484 85.9255C78.5788 83.974 79.486 81.2919 79.1962 78.5917C78.7119 74.0759 74.9161 70.5354 70.3669 70.3574C65.0507 70.1575 60.749 74.395 60.749 79.6048C60.749 81.9673 61.6522 84.2305 63.2518 85.9335L60.7761 95.3419C59.8571 98.8353 62.4886 102.253 66.1037 102.253ZM63.3685 96.0252L66.0428 85.8616C66.1059 85.6217 66.1012 85.3691 66.0292 85.1317C65.9572 84.8944 65.8208 84.6817 65.6351 84.5173C64.9412 83.9009 64.3859 83.1443 64.0057 82.2976C63.6256 81.4509 63.4292 80.5332 63.4295 79.605C63.4295 75.9399 66.4021 73.0302 69.9956 73.0302C70.0839 73.0302 70.173 73.033 70.2619 73.0354C73.4917 73.1623 76.1873 75.6741 76.531 78.8771C76.7621 81.0316 75.9726 83.084 74.3648 84.5094C74.1794 84.6737 74.0431 84.8861 73.9711 85.1232C73.8991 85.3602 73.8943 85.6126 73.9571 85.8523L76.6319 96.0239C77.1041 97.8168 75.7531 99.5723 73.897 99.5723H66.1037C64.2517 99.5723 62.8952 97.8223 63.3685 96.0252Z" fill="#40437E"/>
<path d="M37.6209 124.657L33.9935 122.562L37.5725 120.496C37.8804 120.318 38.1051 120.025 38.1971 119.682C38.2892 119.338 38.241 118.972 38.0633 118.664C37.6923 118.022 36.8717 117.802 36.2321 118.174L32.6528 120.24V116.093C32.6529 115.916 32.6183 115.742 32.5509 115.58C32.4836 115.417 32.3849 115.269 32.2604 115.145C32.1359 115.02 31.9881 114.921 31.8255 114.854C31.6628 114.787 31.4885 114.752 31.3124 114.752C31.1364 114.752 30.9621 114.787 30.7994 114.854C30.6367 114.921 30.4889 115.02 30.3645 115.145C30.24 115.269 30.1413 115.417 30.0739 115.58C30.0066 115.742 29.972 115.916 29.972 116.093V120.24L26.3927 118.174C26.2404 118.085 26.072 118.028 25.8974 118.005C25.7228 117.982 25.5453 117.993 25.3752 118.039C25.2051 118.084 25.0456 118.163 24.906 118.27C24.7663 118.378 24.6493 118.512 24.5615 118.664C24.3839 118.972 24.3358 119.338 24.4278 119.682C24.5199 120.025 24.7445 120.318 25.0523 120.496L28.6311 122.562L25.0034 124.657C24.7 124.837 24.4798 125.129 24.3906 125.47C24.3013 125.812 24.3501 126.174 24.5265 126.48C24.7029 126.785 24.9925 127.009 25.3327 127.102C25.6729 127.196 26.0362 127.151 26.3438 126.979L29.972 124.884V129.059C29.972 129.235 30.0066 129.409 30.0739 129.572C30.1413 129.734 30.24 129.882 30.3645 130.007C30.4889 130.131 30.6367 130.23 30.7994 130.297C30.9621 130.365 31.1364 130.399 31.3124 130.399C31.4885 130.399 31.6628 130.365 31.8255 130.297C31.9881 130.23 32.1359 130.131 32.2604 130.007C32.3849 129.882 32.4836 129.734 32.5509 129.572C32.6183 129.409 32.6529 129.235 32.6528 129.059V124.884L36.2805 126.979C36.4839 127.096 36.7145 127.158 36.9493 127.158C37.2446 127.159 37.5316 127.061 37.7659 126.882C38.0003 126.702 38.1688 126.45 38.2453 126.165C38.3219 125.88 38.3022 125.578 38.1893 125.305C38.0764 125.032 37.8766 124.804 37.6209 124.657ZM63.4132 124.657L59.7852 122.562L63.3642 120.495C63.6721 120.318 63.8968 120.025 63.9889 119.681C64.0809 119.338 64.0328 118.972 63.855 118.664C63.484 118.022 62.6634 117.802 62.0238 118.173L58.4445 120.24V116.092C58.4446 115.916 58.41 115.742 58.3426 115.579C58.2753 115.417 58.1766 115.269 58.0521 115.144C57.9276 115.02 57.7798 114.921 57.6172 114.854C57.4545 114.786 57.2802 114.752 57.1041 114.752C56.9281 114.752 56.7538 114.786 56.5911 114.854C56.4285 114.921 56.2807 115.02 56.1562 115.144C56.0317 115.269 55.933 115.417 55.8656 115.579C55.7983 115.742 55.7637 115.916 55.7638 116.092V120.24L52.1845 118.173C52.0321 118.085 51.8638 118.027 51.6891 118.004C51.5145 117.981 51.337 117.993 51.1668 118.038C50.9967 118.084 50.8372 118.163 50.6976 118.27C50.5579 118.377 50.4409 118.511 50.3532 118.664C50.1755 118.972 50.1274 119.338 50.2194 119.681C50.3115 120.025 50.5362 120.318 50.8441 120.495L54.4231 122.562L50.7951 124.657C50.4918 124.837 50.2716 125.129 50.1823 125.47C50.093 125.812 50.1419 126.174 50.3182 126.48C50.4946 126.785 50.7842 127.009 51.1244 127.102C51.4646 127.196 51.8279 127.151 52.1355 126.979L55.7638 124.884V129.059C55.7637 129.235 55.7983 129.409 55.8656 129.572C55.933 129.734 56.0317 129.882 56.1562 130.007C56.2807 130.131 56.4285 130.23 56.5911 130.297C56.7538 130.365 56.9281 130.399 57.1041 130.399C57.2802 130.399 57.4545 130.365 57.6172 130.297C57.7798 130.23 57.9276 130.131 58.0521 130.007C58.1766 129.882 58.2753 129.734 58.3426 129.572C58.41 129.409 58.4446 129.235 58.4445 129.059V124.884L62.0728 126.979C62.2762 127.096 62.5068 127.158 62.7416 127.158C63.0369 127.158 63.324 127.061 63.5584 126.882C63.7928 126.702 63.9613 126.45 64.0379 126.165C64.1144 125.88 64.0947 125.578 63.9817 125.305C63.8688 125.032 63.6689 124.804 63.4132 124.657ZM89.2049 124.657L85.5772 122.562L89.1559 120.496C89.4638 120.318 89.6885 120.025 89.7806 119.682C89.8726 119.338 89.8245 118.972 89.6468 118.664C89.2757 118.022 88.4551 117.802 87.8155 118.174L84.2363 120.24V116.093C84.2363 115.916 84.2017 115.742 84.1344 115.58C84.067 115.417 83.9683 115.269 83.8438 115.145C83.7193 115.02 83.5716 114.921 83.4089 114.854C83.2462 114.787 83.0719 114.752 82.8959 114.752C82.7198 114.752 82.5455 114.787 82.3828 114.854C82.2202 114.921 82.0724 115.02 81.9479 115.145C81.8234 115.269 81.7247 115.417 81.6574 115.58C81.59 115.742 81.5554 115.916 81.5555 116.093V120.24L77.9762 118.174C77.8238 118.085 77.6555 118.028 77.4809 118.005C77.3062 117.981 77.1287 117.993 76.9585 118.038C76.7884 118.084 76.6289 118.163 76.4893 118.27C76.3497 118.378 76.2326 118.512 76.145 118.664C75.9672 118.972 75.9191 119.338 76.0112 119.682C76.1032 120.025 76.3279 120.318 76.6358 120.496L80.2148 122.562L76.5874 124.657C76.284 124.837 76.0638 125.129 75.9745 125.47C75.8853 125.812 75.9341 126.174 76.1105 126.48C76.2868 126.785 76.5765 127.009 76.9167 127.102C77.2569 127.196 77.6202 127.151 77.9278 126.979L81.5555 124.884V129.058C81.5554 129.234 81.59 129.409 81.6574 129.571C81.7247 129.734 81.8234 129.882 81.9479 130.006C82.0724 130.131 82.2202 130.23 82.3828 130.297C82.5455 130.364 82.7198 130.399 82.8959 130.399C83.0719 130.399 83.2462 130.364 83.4089 130.297C83.5716 130.23 83.7193 130.131 83.8438 130.006C83.9683 129.882 84.067 129.734 84.1344 129.571C84.2017 129.409 84.2363 129.234 84.2363 129.058V124.884L87.8645 126.978C88.0679 127.096 88.2985 127.158 88.5333 127.158C88.8284 127.158 89.1152 127.061 89.3493 126.881C89.5835 126.701 89.7518 126.45 89.8284 126.165C89.9049 125.88 89.8852 125.578 89.7725 125.305C89.6598 125.032 89.4603 124.804 89.2049 124.657ZM114.997 124.657L111.369 122.562L114.948 120.495C115.256 120.318 115.481 120.025 115.573 119.681C115.665 119.338 115.616 118.972 115.439 118.664C115.351 118.512 115.234 118.378 115.094 118.27C114.955 118.163 114.795 118.084 114.625 118.039C114.455 117.993 114.277 117.981 114.103 118.005C113.928 118.028 113.76 118.085 113.608 118.173L110.028 120.24V116.092C110.028 115.916 109.994 115.742 109.926 115.579C109.859 115.417 109.76 115.269 109.636 115.144C109.511 115.02 109.364 114.921 109.201 114.854C109.038 114.786 108.864 114.752 108.688 114.752C108.512 114.752 108.337 114.786 108.175 114.854C108.012 114.921 107.864 115.02 107.74 115.144C107.615 115.269 107.517 115.417 107.449 115.579C107.382 115.742 107.347 115.916 107.347 116.092V120.24L103.768 118.173C103.616 118.085 103.447 118.027 103.273 118.004C103.098 117.981 102.921 117.993 102.751 118.038C102.58 118.084 102.421 118.163 102.281 118.27C102.142 118.377 102.025 118.511 101.937 118.664C101.759 118.972 101.711 119.338 101.803 119.681C101.895 120.025 102.12 120.318 102.428 120.495L106.007 122.562L102.379 124.657C102.075 124.837 101.855 125.129 101.766 125.47C101.677 125.812 101.726 126.174 101.902 126.48C102.078 126.785 102.368 127.009 102.708 127.102C103.048 127.196 103.412 127.151 103.719 126.979L107.347 124.884V129.059C107.347 129.235 107.382 129.409 107.449 129.572C107.517 129.734 107.615 129.882 107.74 130.007C107.864 130.131 108.012 130.23 108.175 130.297C108.337 130.365 108.512 130.399 108.688 130.399C108.864 130.399 109.038 130.365 109.201 130.297C109.364 130.23 109.511 130.131 109.636 130.007C109.76 129.882 109.859 129.734 109.926 129.572C109.994 129.409 110.028 129.235 110.028 129.059V124.884L113.656 126.979C113.86 127.096 114.091 127.158 114.325 127.158C114.621 127.158 114.908 127.061 115.142 126.882C115.376 126.702 115.545 126.45 115.622 126.165C115.698 125.88 115.678 125.578 115.565 125.305C115.452 125.032 115.253 124.804 114.997 124.657Z" fill="#4A90E2"/>
</svg>
