<svg width="200" height="200" viewBox="0 0 200 200" fill="none" xmlns="http://www.w3.org/2000/svg">
<path d="M104.942 193.817L104.85 193.833L104.259 194.125L104.092 194.158L103.975 194.125L103.384 193.833C103.295 193.806 103.228 193.82 103.184 193.875L103.15 193.958L103.009 197.525L103.05 197.692L103.134 197.8L104 198.417L104.125 198.45L104.225 198.417L105.092 197.8L105.192 197.667L105.225 197.525L105.084 193.967C105.062 193.878 105.014 193.828 104.942 193.817ZM107.15 192.875L107.042 192.892L105.5 193.667L105.417 193.75L105.392 193.842L105.542 197.425L105.584 197.525L105.65 197.583L107.325 198.358C107.431 198.386 107.512 198.364 107.567 198.292L107.6 198.175L107.317 193.058C107.289 192.958 107.234 192.897 107.15 192.875ZM101.192 192.892C101.155 192.87 101.112 192.862 101.07 192.872C101.028 192.881 100.991 192.906 100.967 192.942L100.917 193.058L100.634 198.175C100.639 198.275 100.687 198.342 100.775 198.375L100.9 198.358L102.575 197.583L102.659 197.517L102.692 197.425L102.834 193.842L102.809 193.742L102.725 193.658L101.192 192.892Z" fill="#43C721"/>
<path d="M94.15 18.2917C97.4385 17.0613 101.032 16.9009 104.417 17.8334L105.85 18.2917L164.183 40.1667C167.141 41.2758 169.723 43.2026 171.627 45.7225C173.532 48.2425 174.682 51.2519 174.942 54.4L175 55.775V100.467C175 113.97 171.354 127.223 164.447 138.827C157.54 150.43 147.628 159.954 135.758 166.392L133.542 167.55L105.592 181.525C104.053 182.293 102.372 182.736 100.654 182.825C98.9361 182.914 97.2184 182.647 95.6083 182.042L94.4083 181.525L66.4583 167.55C54.3801 161.511 44.1565 152.322 36.8667 140.955C29.5769 129.588 25.4915 116.463 25.0417 102.967L25 100.467V55.775C25 52.6178 25.8969 49.5255 27.5861 46.8581C29.2753 44.1908 31.6875 42.0581 34.5417 40.7084L35.8167 40.1667L94.15 18.2917ZM100 33.9L41.6667 55.775V100.467C41.6669 110.925 44.4788 121.191 49.808 130.19C55.1371 139.189 62.7876 146.589 71.9583 151.617L73.9167 152.642L100 165.683L126.083 152.642C135.439 147.965 143.366 140.858 149.032 132.066C154.699 123.273 157.897 113.119 158.292 102.667L158.333 100.467V55.775L100 33.9ZM128.608 71.9084C130.108 70.4138 132.12 69.5461 134.237 69.4815C136.353 69.4168 138.414 70.1601 140.002 71.5604C141.59 72.9607 142.586 74.913 142.787 77.0206C142.987 79.1283 142.378 81.2334 141.083 82.9084L140.392 83.6917L96.775 127.317C95.1862 128.905 93.0694 129.855 90.8264 129.986C88.5835 130.116 86.3707 129.418 84.6083 128.025L83.8083 127.317L63.775 107.283C62.2645 105.787 61.3831 103.77 61.311 101.645C61.2389 99.5206 61.9816 97.4486 63.3872 95.8535C64.7928 94.2584 66.7549 93.2608 68.8719 93.065C70.9889 92.8691 73.1007 93.4898 74.775 94.8L75.5583 95.4917L90.2917 110.225L128.608 71.9084Z" fill="#43C721"/>
</svg>
